<?xml version="1.0" encoding="UTF-8"?>
<svg version="1.1" xmlns="http://www.w3.org/2000/svg" width="1153" height="1295">
<path d="M0 0 C1.12092041 0.57709717 2.24184082 1.15419434 3.39672852 1.7487793 C4.32205132 2.22399017 4.32205132 2.22399017 5.2660675 2.70880127 C7.27199581 3.74166077 9.2740645 4.78172095 11.27563477 5.82299805 C11.96653198 6.18086395 12.6574292 6.53872986 13.3692627 6.90744019 C24.08627095 12.46236407 34.6546876 18.23715159 45.12329102 24.2487793 C49.1500303 26.56010097 53.20056222 28.82132161 57.27172852 31.0534668 C73.75394374 40.09113277 89.86948589 49.6011187 105.83813477 59.51049805 C106.74176758 60.06962891 107.64540039 60.62875977 108.57641602 61.20483398 C121.78127219 69.40462371 134.71088284 78.02632558 147.65063477 86.63549805 C148.47439606 87.18285614 149.29815735 87.73021423 150.1468811 88.29415894 C161.50992687 95.85087402 172.73403856 103.57825354 183.83813477 111.51049805 C184.74813232 112.15905762 185.65812988 112.80761719 186.59570312 113.47583008 C188.70165751 114.98153441 190.80290624 116.49336081 192.90063477 118.01049805 C193.63757568 118.54328369 194.3745166 119.07606934 195.13378906 119.625 C207.19619664 128.37150347 219.07401971 137.36736649 230.83813477 146.51049805 C231.38646973 146.9365332 231.93480469 147.36256836 232.49975586 147.80151367 C241.440237 154.76008936 250.2557884 161.86664468 259.02954102 169.03393555 C260.63048956 170.34097345 262.23411453 171.6447316 263.83813477 172.94799805 C270.33528129 178.23637312 276.74698318 183.62031138 283.12475586 189.05151367 C284.28324823 190.03799848 285.44244746 191.02365369 286.60229492 192.00854492 C293.64352633 197.98945424 300.59153988 204.04287251 307.40063477 210.2878418 C309.48086202 212.18471568 311.58370374 214.04442748 313.71313477 215.88549805 C318.28961921 219.86787497 322.73651204 223.9890721 327.17944336 228.11889648 C329.39328679 230.17486833 331.61453231 232.22183903 333.84765625 234.25683594 C345.99924795 245.39357413 357.58786953 257.10748816 369.22924805 268.77124023 C372.2524972 271.80023135 375.28027868 274.82464621 378.30937195 277.84779167 C380.6722281 280.20701715 383.03267661 282.56864001 385.39242554 284.93097305 C386.5079136 286.04712109 387.62412516 287.16254661 388.74111938 288.27718735 C394.65552124 294.18183776 400.40389976 300.15509917 405.83813477 306.51049805 C407.13982231 307.92676245 408.44996349 309.33540768 409.77563477 310.72924805 C410.44336914 311.43436523 411.11110352 312.13948242 411.79907227 312.8659668 C412.47196289 313.57366211 413.14485352 314.28135742 413.83813477 315.01049805 C418.96758554 320.40526524 423.98177992 325.86808457 428.83813477 331.51049805 C429.32056641 332.07075684 429.80299805 332.63101562 430.30004883 333.20825195 C431.69032992 334.82764121 433.07722059 336.44987052 434.46313477 338.07299805 C438.24270051 342.49404695 442.0402668 346.89836804 445.86010742 351.28466797 C451.64446468 357.92964127 457.29652123 364.6607341 462.83813477 371.51049805 C464.29609909 373.28163521 465.75444012 375.05246232 467.21313477 376.82299805 C471.47053671 382.02894032 475.64378898 387.2954554 479.77172852 392.60424805 C482.03782438 395.51186289 484.35305503 398.37485995 486.68579102 401.22924805 C487.98663994 402.84377686 489.28742195 404.45835958 490.58813477 406.07299805 C491.22130615 406.83491455 491.85447754 407.59683105 492.50683594 408.38183594 C493.0853833 409.1062085 493.66393066 409.83058105 494.26000977 410.5769043 C495.04263184 411.53512085 495.04263184 411.53512085 495.84106445 412.51269531 C497.22248546 415.28061111 496.78441845 416.59843249 495.83813477 419.51049805 C494.58569336 422.05224609 494.58569336 422.05224609 492.98657227 424.7722168 C492.39038086 425.79508789 491.79418945 426.81795898 491.17993164 427.87182617 C490.53088867 428.96946289 489.8818457 430.06709961 489.21313477 431.19799805 C488.53334558 432.35966727 487.85432229 433.52178498 487.17602539 434.68432617 C485.76655174 437.09867251 484.35380489 439.51105727 482.9387207 441.92211914 C479.70757956 447.43368388 476.52540481 452.97349185 473.33813477 458.51049805 C472.08836529 460.67729769 470.83836452 462.84396395 469.58813477 465.01049805 C468.96938477 466.08299805 468.35063477 467.15549805 467.71313477 468.26049805 C430.83813477 532.17716471 393.96313477 596.09383138 357.08813477 660.01049805 C356.4693042 661.08315918 355.85047363 662.15582031 355.21289062 663.26098633 C353.96377958 665.42606875 352.71459347 667.59110787 351.46533203 669.75610352 C348.32611167 675.19665511 345.18822914 680.6379702 342.05297852 686.08081055 C336.03066148 696.53256004 329.99144139 706.97349353 323.90063477 717.38549805 C318.82538353 726.06312046 313.8155471 734.77655372 308.83813477 743.51049805 C303.29811747 753.23165421 297.70438668 762.91944463 292.0546875 772.57739258 C285.90046735 783.10134429 279.81443481 793.66429942 273.72924805 804.22827148 C270.60133328 809.65709747 267.46955029 815.08369086 264.33813477 820.51049805 C263.08811598 822.67715387 261.83811598 824.84382054 260.58813477 827.01049805 C243.08813477 857.34383138 225.58813477 887.67716471 208.08813477 918.01049805 C207.46841797 919.08477051 206.84870117 920.15904297 206.21020508 921.26586914 C204.9703094 923.41482762 203.73007947 925.56359328 202.48950195 927.7121582 C199.55940903 932.78774571 196.63277068 937.8652354 193.71801758 942.949646 C192.34116951 945.35090035 190.96240784 947.7510533 189.58349609 950.15112305 C188.61116773 951.84536408 187.64160936 953.54119386 186.67211914 955.23706055 C185.7875 956.77620117 185.7875 956.77620117 184.88500977 958.34643555 C184.10915527 959.70067627 184.10915527 959.70067627 183.31762695 961.08227539 C182.82939453 961.88358887 182.34116211 962.68490234 181.83813477 963.51049805 C181.43073219 964.21033376 181.02332961 964.91016948 180.6035815 965.63121234 C178.83813477 967.51049805 178.83813477 967.51049805 176.2675028 968.00918271 C175.22602018 968.00855878 174.18453755 968.00793486 173.11149484 968.00729203 C171.9078496 968.01628121 170.70420435 968.02527038 169.46408501 968.03453195 C168.1188829 968.02426805 166.77368352 968.01364033 165.42848682 968.00268936 C164.00095343 968.00564612 162.57342276 968.01035854 161.14590028 968.01667535 C157.19615324 968.02900588 153.24681496 968.01620681 149.29709823 967.99956282 C145.01043706 967.98587251 140.72381901 967.99530027 136.4371497 968.00187278 C128.91540261 968.01018497 121.39378179 968.00356346 113.87204933 967.98731995 C102.6874398 967.96323317 91.5029103 967.96197174 80.31827956 967.9654879 C61.50627857 967.97075041 42.69433367 967.95735171 23.88234901 967.93341827 C5.24873897 967.90977239 -13.38484773 967.89435899 -32.01847267 967.89000702 C-33.17586601 967.88973206 -34.33325936 967.8894571 -35.52572522 967.88917381 C-41.40323583 967.88782053 -47.28074646 967.88661498 -53.1582571 967.88546631 C-94.81841128 967.87705852 -136.47853491 967.85009199 -178.13867188 967.81225586 C-218.61783689 967.77553466 -259.09699355 967.74719212 -299.57617188 967.73022461 C-300.82331398 967.7296985 -302.07045609 967.7291724 -303.35539038 967.72863035 C-315.8793904 967.7233564 -328.40339048 967.71825312 -340.92739061 967.71327492 C-366.44156917 967.70312931 -391.95574717 967.6918443 -417.46992493 967.67987061 C-418.64309631 967.67932145 -419.81626769 967.67877229 -421.02498972 967.67820648 C-499.40396092 967.64138676 -577.78291519 967.57800398 -656.16186523 967.51049805 C-656.18541307 948.09717046 -656.20295035 928.68384585 -656.21367741 909.27050686 C-656.21879452 900.25292414 -656.22574772 891.23535039 -656.23730469 882.21777344 C-656.24739385 874.34161006 -656.25375181 866.46545319 -656.25595373 858.58928353 C-656.25723716 854.43388281 -656.26016738 850.27850066 -656.26759529 846.123106 C-656.31302076 819.65410975 -656.34128534 793.08174467 -653.97436523 766.69799805 C-653.91284271 766.00179352 -653.85132019 765.30558899 -653.78793335 764.58828735 C-647.09606564 689.96491933 -628.18825601 616.3373001 -596.16186523 548.51049805 C-595.72052246 547.56368164 -595.27917969 546.61686523 -594.82446289 545.64135742 C-580.33965707 514.5961034 -563.66422431 484.69817169 -544.16186523 456.51049805 C-543.44184326 455.46853271 -543.44184326 455.46853271 -542.70727539 454.40551758 C-530.91551314 437.40444828 -518.55630873 420.83089158 -505.77416992 404.5637207 C-504.27700992 402.65713142 -502.78488139 400.74674507 -501.29467773 398.8347168 C-494.84701327 390.57476709 -488.26330088 382.42937795 -481.6340332 374.31469727 C-480.33915012 372.72776759 -479.04896045 371.13701068 -477.75952148 369.5456543 C-472.19712588 362.69576025 -466.47041028 355.99644323 -460.71020508 349.31323242 C-459.18345833 347.53563892 -457.66544815 345.7509779 -456.15014648 343.96362305 C-450.19596161 336.95132666 -444.09201081 330.11660702 -437.82202148 323.38549805 C-435.76765029 321.16520848 -433.75849874 318.92832498 -431.78686523 316.63549805 C-427.39183985 311.56268562 -422.77723321 306.69201697 -418.18383789 301.79956055 C-415.64188332 299.09094576 -413.10517755 296.37761446 -410.57373047 293.65917969 C-401.24036908 283.65988572 -391.69836015 273.89030412 -382.01342773 264.23168945 C-379.63203034 261.8557313 -377.2561328 259.47436473 -374.88061523 257.0925293 C-373.33926965 255.55184343 -371.79761447 254.01146721 -370.25561523 252.47143555 C-369.55964233 251.77343842 -368.86366943 251.07544128 -368.14660645 250.35629272 C-364.17401115 246.40242931 -360.09957362 242.62726037 -355.8470459 238.97549438 C-353.85384357 237.24272225 -351.99596008 235.41009628 -350.16186523 233.51049805 C-347.07941019 230.3863882 -343.88676752 227.48348716 -340.56030273 224.6237793 C-337.3703957 221.81312831 -334.26930632 218.91170391 -331.16186523 216.01049805 C-326.2357239 211.41955607 -321.27909769 206.88877997 -316.16186523 202.51049805 C-315.12791845 201.62258505 -314.09407391 200.73455299 -313.06030273 199.84643555 C-310.66691487 197.79147923 -308.27059846 195.73999609 -305.87280273 193.69018555 C-303.45365144 191.62079106 -301.0424779 189.54272497 -298.63842773 187.45581055 C-292.30501239 181.96916075 -285.8841393 176.64832893 -279.26464844 171.50976562 C-275.55787963 168.62752887 -271.93518854 165.66852731 -268.34936523 162.63549805 C-262.26871765 157.52936484 -255.97485891 152.73076813 -249.65014648 147.93237305 C-245.89506297 145.08024509 -242.17805534 142.18259699 -238.46899414 139.27099609 C-229.60131841 132.31593739 -220.55883093 125.65119724 -211.38549805 119.10620117 C-209.20434389 117.54098119 -207.03666928 115.95888525 -204.87280273 114.36987305 C-193.52037914 106.05067714 -181.86881159 98.22752002 -170.12524414 90.47290039 C-167.32199546 88.61653914 -164.52718672 86.7483394 -161.73608398 84.8737793 C-141.2533334 71.120447 -120.39433041 58.07454083 -99.16186523 45.51049805 C-97.6889502 44.63675537 -97.6889502 44.63675537 -96.1862793 43.74536133 C-69.02801011 27.66182236 -41.30369098 12.78708283 -13.16186523 -1.48950195 C-12.48969971 -1.92987793 -11.81753418 -2.37025391 -11.125 -2.82397461 C-7.17435933 -4.16329142 -3.56553657 -1.67966478 0 0 Z " fill="#FDFDFD" transform="translate(656.161865234375,3.489501953125)"/>
<path d="M0 0 C0.96567604 0.00015598 1.93135209 0.00031196 2.92629104 0.00047267 C4.03800325 -0.00177462 5.14971546 -0.00402192 6.29511591 -0.00633731 C8.15382045 -0.00239679 8.15382045 -0.00239679 10.05007457 0.00162334 C11.35802965 0.00046949 12.66598473 -0.00068435 14.01357481 -0.00187316 C17.67719117 -0.00496246 21.34078008 -0.00175039 25.00439441 0.00240497 C28.97754549 0.005822 32.95069361 0.00347167 36.92384523 0.00182748 C43.89821873 -0.0002523 50.87258373 0.00140778 57.84695625 0.00546569 C68.21770962 0.01148303 78.58845758 0.01180314 88.95921237 0.0109237 C106.40166196 0.00960754 123.84410776 0.01295977 141.28655624 0.01894111 C158.56534849 0.02485118 175.84413917 0.02870565 193.12293243 0.02979392 C194.73237793 0.02989703 194.73237793 0.02989703 196.37433748 0.03000222 C201.82302329 0.03034054 207.27170909 0.03064193 212.7203949 0.0309291 C251.34796364 0.03303143 289.97553033 0.03977414 328.60309791 0.04923171 C366.13727749 0.05841099 403.6714565 0.06549713 441.20563697 0.06973952 C442.36190472 0.06987105 443.51817247 0.07000258 444.70947864 0.07013809 C456.32083056 0.07145657 467.93218248 0.07273239 479.5435344 0.07397695 C503.19875983 0.0765134 526.85398521 0.07933465 550.50921058 0.08232803 C552.14077729 0.08253396 552.14077729 0.08253396 553.80530494 0.08274406 C626.48326478 0.09195006 699.16122348 0.10779588 771.8391819 0.12467116 C771.03896945 4.83030093 769.18764902 8.28508932 766.7141819 12.31217116 C765.79748384 13.83741219 764.8822115 15.36351066 763.96808815 16.89029616 C763.46680397 17.72496413 762.96551979 18.5596321 762.44904518 19.41959304 C759.46348171 24.43628143 756.56239569 29.50181562 753.6516819 34.56217116 C752.35616048 36.81089876 751.06058688 39.05959628 749.76496315 41.30826491 C748.7897068 43.00185134 748.7897068 43.00185134 747.7947483 44.72965163 C744.64586136 50.19637096 741.49234926 55.66042004 738.3391819 61.12467116 C737.0891584 63.29132427 735.83915843 65.45799096 734.5891819 67.62467116 C722.0891819 89.29133783 709.5891819 110.9580045 697.0891819 132.62467116 C696.47035133 133.6973323 695.85152076 134.76999343 695.21393776 135.87515945 C693.96482672 138.04024187 692.7156406 140.20528099 691.46637916 142.37027663 C688.3271588 147.81082822 685.18927627 153.25214332 682.05402565 158.69498366 C675.40771885 170.22994591 668.74136512 181.75253927 662.02057838 193.24430007 C661.24242775 194.57533767 661.24242775 194.57533767 660.4485569 195.93326491 C659.90521149 196.80933353 659.36186608 197.68540215 658.80205565 198.5880183 C657.23441428 201.24406287 656.10429065 203.9303384 654.99315756 206.80522442 C649.66455741 219.43718789 649.66455741 219.43718789 643.34784986 222.22366946 C635.64748152 224.02911529 627.7301858 223.58892524 619.87783241 223.40950698 C617.19094082 223.4177962 614.50505458 223.43363363 611.81836527 223.45870114 C605.98129716 223.498001 600.14791727 223.46707187 594.31127929 223.38957519 C585.63331325 223.27467342 576.95766199 223.26921391 568.27907391 223.28587297 C553.68001088 223.31081203 539.08258419 223.24745175 524.48399734 223.13354224 C510.03238574 223.0210689 495.58145588 222.94798003 481.12940979 222.92733878 C480.23042686 222.92603273 479.33144394 222.92472668 478.40521911 222.92338105 C473.83962912 222.9169526 469.27403854 222.91122635 464.7084473 222.9057704 C432.38071214 222.86587564 400.05386697 222.73790416 367.72663307 222.55802077 C336.32368638 222.38348239 304.92098334 222.24891117 273.51764869 222.16837234 C272.54945319 222.16587334 271.5812577 222.16337434 270.58372294 222.16079962 C260.86059401 222.13574747 251.13746319 222.11150704 241.41433074 222.08786129 C221.60766717 222.03967487 201.80101948 221.98607108 181.99437904 221.92919082 C181.08372692 221.92658231 180.1730748 221.9239738 179.23482716 221.92128624 C118.43590826 221.74651041 57.63748426 221.44545576 -3.1608181 221.12467116 C-3.18414338 192.45750587 -3.20179545 163.79034199 -3.21263028 135.12316913 C-3.21779402 121.81352577 -3.22483822 108.50389055 -3.23625756 95.19425124 C-3.24620199 83.59817072 -3.25267096 72.00209446 -3.2549066 60.4060098 C-3.25621412 54.26183592 -3.25930254 48.11767423 -3.26654816 41.97350425 C-3.27330459 36.19769707 -3.27543584 30.42190717 -3.27392578 24.64609641 C-3.27420228 22.51955241 -3.27620963 20.39300787 -3.28002358 18.26646728 C-3.28495494 15.37661533 -3.28381847 12.48682976 -3.28107262 9.59697646 C-3.28544188 8.31733279 -3.28544188 8.31733279 -3.28989941 7.01183772 C-3.27221838 0.18879483 -3.27221838 0.18879483 0 0 Z " fill="#FDFDFD" transform="translate(3.1608181037008762,1073.8753288351)"/>
</svg>
