<?xml version="1.0" encoding="UTF-8"?>
<svg version="1.1" xmlns="http://www.w3.org/2000/svg" width="996" height="1090">
<path d="M0 0 C2.05061413 0.85046307 4.10427098 1.69360957 6.16015625 2.53125 C8.46298728 3.51605393 10.76367555 4.50587944 13.0625 5.5 C13.67259918 5.76288818 14.28269836 6.02577637 14.9112854 6.29663086 C35.85974809 15.32654498 56.49133981 25.01534547 77 35 C77.94617188 35.45874512 78.89234375 35.91749023 79.8671875 36.39013672 C92.31463505 42.44170567 104.4277566 48.94342464 116.43359375 55.828125 C120.69086003 58.26754224 124.98153121 60.63211168 129.30029297 62.96044922 C149.24325282 73.73348194 168.54317839 85.77802826 187.43066406 98.29736328 C190.25954641 100.17199512 193.09477809 102.0368404 195.9296875 103.90234375 C207.40169712 111.4756307 218.71408077 119.21392109 229.78173828 127.3671875 C232.12952698 129.09534189 234.48429452 130.81369132 236.83984375 132.53125 C245.80314839 139.08197333 254.64299048 145.75601204 263.32617188 152.67333984 C265.04837327 154.03834019 266.78034824 155.38995016 268.515625 156.73828125 C275.4496489 162.13194083 282.22744516 167.6686978 288.90625 173.375 C291.7955132 175.83915964 294.73518458 178.23661 297.6875 180.625 C302.13903808 184.24834495 306.42382455 188.01963872 310.66796875 191.8828125 C312.75823889 193.78051169 314.86986115 195.64733415 317 197.5 C328.53212395 207.55895841 340.05824815 217.76944809 350.70703125 228.76953125 C352.619759 230.63012332 354.56616737 232.35980153 356.59033203 234.09472656 C361.19945114 238.11723229 365.52893642 242.38474031 369.84765625 246.71484375 C371.07094887 247.93670128 371.07094887 247.93670128 372.31895447 249.1832428 C374.03198008 250.89559193 375.74375965 252.60918842 377.4543457 254.32397461 C380.05503552 256.93002015 382.66101956 259.53068522 385.26757812 262.13085938 C386.94042486 263.80436699 388.61296134 265.47818482 390.28515625 267.15234375 C391.05513443 267.9202977 391.82511261 268.68825165 392.61842346 269.47947693 C397.27991172 274.16097199 401.70233877 278.9838711 406 284 C407.04530105 285.19148685 408.09195662 286.38178828 409.140625 287.5703125 C418.28244921 297.99988098 426.99094283 308.67290486 435 320 C428.71895064 332.17197143 421.81992386 343.9581148 414.88964844 355.76904297 C411.75753357 361.12439285 408.65949655 366.49928772 405.5625 371.875 C404.94044678 372.95434814 404.31839355 374.03369629 403.67749023 375.14575195 C402.41519376 377.33632735 401.1530683 379.52700131 399.89111328 381.71777344 C396.76319852 387.14659942 393.63141552 392.57319281 390.5 398 C389.24998121 400.16665583 387.99998122 402.3333225 386.75 404.5 C384.25 408.83333333 381.75 413.16666667 379.25 417.5 C378.63116943 418.57266113 378.01233887 419.64532227 377.37475586 420.75048828 C376.12564482 422.91557071 374.87645871 425.08060982 373.62719727 427.24560547 C370.48797691 432.68615706 367.35009437 438.12747216 364.21484375 443.5703125 C358.19252671 454.02206199 352.15330663 464.46299548 346.0625 474.875 C340.98724877 483.55262241 335.97741233 492.26605568 331 501 C325.4599827 510.72115617 319.86625191 520.40894658 314.21655273 530.06689453 C308.06233258 540.59084625 301.97630004 551.15380137 295.89111328 561.71777344 C292.76319852 567.14659942 289.63141552 572.57319281 286.5 578 C285.24998121 580.16665583 283.99998122 582.3333225 282.75 584.5 C250.25 640.83333333 217.75 697.16666667 185.25 753.5 C184.63084717 754.5732251 184.01169434 755.6464502 183.3737793 756.75219727 C182.1279423 758.91159395 180.88201182 761.07093669 179.63598633 763.23022461 C176.44651047 768.75767597 173.25883115 774.28615121 170.07421875 779.81640625 C169.42324219 780.94626953 168.77226563 782.07613281 168.1015625 783.24023438 C166.88349096 785.35445854 165.6659806 787.46900619 164.44921875 789.58398438 C163.31861667 791.54583594 162.16101581 793.49241544 160.97489679 795.42120892 C159.47516115 797.97283707 158.4248219 800.48749885 157.43808711 803.27515978 C155.46204913 808.26845092 153.26564312 812.60321187 149 816 C140.82859066 819.07109904 131.56932959 818.26132461 122.970501 818.07852528 C119.32390585 818.01990511 115.67816651 818.06048903 112.03139269 818.08834261 C105.64372619 818.12353966 99.25875533 818.09576528 92.87140274 818.02649307 C83.37429132 817.92378144 73.87887528 817.91879347 64.38130968 817.93370688 C48.40488976 817.95603174 32.42966601 817.89928638 16.45359421 817.79741096 C0.63633683 817.6968069 -15.18042229 817.63138741 -30.99799728 817.61291313 C-31.9816161 817.61174456 -32.96523492 817.61057598 -33.97866037 817.609372 C-38.97400222 817.6036203 -43.9693445 817.59849679 -48.96468727 817.59361511 C-84.34317096 817.55791175 -119.72100394 817.44338791 -155.09912109 817.2824707 C-189.46757548 817.12632642 -223.83585179 817.00590977 -258.20458984 816.93383789 C-259.26405428 816.93160195 -260.32351872 816.929366 -261.41508813 816.9270623 C-272.05470457 816.90464738 -282.69432237 816.88295856 -293.33394138 816.86180169 C-315.00790524 816.81868653 -336.68185749 816.77072524 -358.35580444 816.71983337 C-359.35232868 816.71749944 -360.34885292 816.71516552 -361.37557486 816.71276086 C-427.91732053 816.55635996 -494.45870523 816.28699268 -561 816 C-561.07056297 791.17965426 -561.12321697 766.35932389 -561.15543652 741.53889751 C-561.17080447 730.01035363 -561.19169733 718.48187262 -561.22631836 706.95336914 C-561.25653341 696.88708679 -561.2756478 686.82085003 -561.28226548 676.75452358 C-561.28612433 671.44087714 -561.29497329 666.12736096 -561.31719017 660.81375694 C-561.44481471 629.03899599 -560.36664846 597.6781191 -555.25 566.25 C-555.06108185 565.05651947 -555.06108185 565.05651947 -554.86834717 563.83892822 C-552.3078504 547.71204033 -548.99855457 531.83520896 -545 516 C-544.69868164 514.80294434 -544.39736328 513.60588867 -544.08691406 512.37255859 C-536.96003395 484.4872261 -527.63949605 457.32379071 -516 431 C-515.57783203 430.03755371 -515.15566406 429.07510742 -514.72070312 428.08349609 C-501.79872438 398.76614959 -486.51759861 371.15980057 -468.8125 344.5 C-468.39256775 343.86669769 -467.9726355 343.23339539 -467.53997803 342.5809021 C-461.95345437 334.17515059 -456.15508903 326.00319147 -450 318 C-449.47510986 317.31728027 -448.95021973 316.63456055 -448.40942383 315.93115234 C-447.11455593 314.25986669 -445.8106967 312.59639034 -444.5 310.9375 C-444.04061035 310.35516602 -443.5812207 309.77283203 -443.10791016 309.17285156 C-436.66392481 301.02487424 -430.12135678 293.01950839 -423.12109375 285.33984375 C-421.19213665 283.21195185 -419.30963647 281.05279141 -417.4375 278.875 C-414.42458045 275.4097946 -411.21495269 272.19420397 -407.94140625 268.9765625 C-406.16949652 267.17256587 -404.5536351 265.31766879 -402.9375 263.375 C-399.12019487 258.9441994 -394.84238286 255.08210678 -390.54052734 251.1340332 C-383.40758299 244.54067857 -376.58666072 237.64040049 -369.76538086 230.72802734 C-365.2828827 226.20376552 -360.76594615 221.82049117 -355.92797852 217.6784668 C-352.40535078 214.61172428 -349.06462789 211.34994555 -345.6875 208.125 C-340.15764789 202.87826864 -334.57487485 197.87792632 -328.60546875 193.13671875 C-325.63298138 190.69901172 -322.81248352 188.11790073 -320 185.5 C-314.52260317 180.41603151 -308.82387284 175.68016654 -303 171 C-301.78287315 170.00380154 -300.56678973 169.00632736 -299.3515625 168.0078125 C-289.73187916 160.11655356 -279.92898969 152.49721096 -270 145 C-269.33500488 144.4961377 -268.67000977 143.99227539 -267.98486328 143.47314453 C-263.34210439 139.9564578 -258.67685464 136.47117427 -254 133 C-253.36707031 132.52723633 -252.73414063 132.05447266 -252.08203125 131.56738281 C-236.73204711 120.13273438 -220.6996232 109.67695835 -204.7277832 99.14056396 C-203.2503299 98.16525063 -201.7744204 97.18759935 -200.29882812 96.20947266 C-179.13746715 82.19030366 -157.22434243 69.25134468 -135 57 C-133.59355225 56.21955322 -133.59355225 56.21955322 -132.15869141 55.42333984 C-102.68709239 39.11110615 -72.46199111 23.81008764 -41.50341797 10.51904297 C-38.35853997 9.15545893 -35.23234553 7.75804733 -32.10920715 6.34584045 C-29.46877029 5.15864633 -26.81752186 3.99719464 -24.16323853 2.84133911 C-22.30858085 2.0257607 -20.46591119 1.1830884 -18.6237793 0.33959961 C-11.15452997 -2.85846096 -7.24703638 -3.654424 0 0 Z " fill="#2A2928" transform="translate(561,3)"/>
<path d="M0 0 C220.11 0 440.22 0 667 0 C666.08377858 3.66488568 665.02289793 6.01292331 663.19140625 9.26171875 C662.61463135 10.289021 662.03785645 11.31632324 661.44360352 12.37475586 C660.82283936 13.46796143 660.2020752 14.56116699 659.5625 15.6875 C658.9243335 16.81873291 658.28616699 17.94996582 657.62866211 19.11547852 C653.77925501 25.92008382 649.8776713 32.69085397 645.88964844 39.41503906 C642.14691469 45.72696294 638.47602017 52.07932063 634.8125 58.4375 C633.85549194 60.09833618 633.85549194 60.09833618 632.87915039 61.79272461 C631.57110523 64.06337068 630.26324552 66.33412358 628.95556641 68.60498047 C625.80667946 74.0716998 622.65316736 79.53574887 619.5 85 C618.2499765 87.16665311 616.99997653 89.33331979 615.75 91.5 C608.25 104.5 600.75 117.5 593.25 130.5 C592.3216333 132.1092334 592.3216333 132.1092334 591.37451172 133.75097656 C590.12628966 135.91447476 588.87791761 138.07788643 587.62939453 140.24121094 C584.47594744 145.70565017 581.32523904 151.17163645 578.1796875 156.640625 C572.04089825 167.30855676 565.87714476 177.96050697 559.625 188.5625 C558.79427979 189.97354004 558.79427979 189.97354004 557.94677734 191.41308594 C557.44098145 192.26805664 556.93518555 193.12302734 556.4140625 194.00390625 C555.9701416 194.75486572 555.5262207 195.5058252 555.06884766 196.27954102 C554 198 554 198 553 199 C550.07248413 199.09907031 547.16853091 199.13174336 544.24054623 199.12304783 C543.30572173 199.12420167 542.37089724 199.12535552 541.40774474 199.12654433 C538.2337215 199.12921906 535.05974766 199.12468183 531.88572693 199.12025452 C529.60384915 199.12069004 527.32197142 199.12156461 525.04009396 199.12284368 C518.73727667 199.12509228 512.4344762 199.12106241 506.13166106 199.11606562 C500.04276364 199.11172055 493.95386614 199.1130248 487.86496764 199.11374746 C475.40361769 199.11506351 462.94227302 199.11171185 450.48092461 199.10573006 C438.1367738 199.09981967 425.79262519 199.09596545 413.44847298 199.09487724 C412.68189195 199.0948085 411.91531092 199.09473976 411.12550016 199.09466894 C407.23266428 199.09433062 403.3398284 199.09402923 399.44699252 199.09374207 C371.85048375 199.09163982 344.25397785 199.08489735 316.6574707 199.07543945 C289.84236669 199.06625994 263.02726347 199.05917392 236.2121582 199.05493164 C234.97303611 199.05473435 234.97303611 199.05473435 233.70888125 199.05453308 C225.41328072 199.05321459 217.11768018 199.05193877 208.82207964 199.05069422 C191.92191881 199.04815778 175.02175804 199.04533653 158.12159729 199.04234314 C156.95595016 199.0421372 156.95595016 199.0421372 155.76675461 199.04192711 C131.9404856 199.03770274 108.11421707 199.03227079 84.28794861 199.02565002 C83.61129239 199.02546247 82.93463616 199.02527491 82.23747521 199.02508167 C54.82498325 199.01746509 27.41249167 199.00857205 0 199 C0 133.33 0 67.66 0 0 Z " fill="#2A2928" transform="translate(0,891)"/>
</svg>
